<svg version="1" xmlns="http://www.w3.org/2000/svg" width="1188" height="1188" viewBox="0 0 891.000000 891.000000"><path d="M529.4 102.8c-6.1 2-13.4 10.3-13.4 15.2 0 .7-2.4-1-5.4-3.9-3-2.8-5.8-5.1-6.1-5.1-1 0-3.7 3.4-10.1 12.2-5.4 7.5-7.3 9.5-6 6.2.8-2-4.2-7.1-7.8-8-3-.7-5.7 1.8-8.2 7.8-.9 2.1-1.7 3.8-1.9 3.8-.2 0-1.7-1.3-3.5-3-2.9-2.7-10.4-5.9-11.4-4.9-.2.2-.6 2.2-1 4.4-2.9 20.5-5.7 30.7-9.1 33.5-1 .8-1.4 0-1.9-3.5-.7-4.2-1.5-5-4.7-4.7-.3.1-3.9-.8-8-1.8-10.3-2.7-13.8-2.6-16.4.5l-2 2.5-4.9-2.5c-5.8-2.9-7.4-3.1-10.4-.9-5.8 4-9.2 18.8-6.7 29.2.6 2.3.5 2.3-1.7.8-3.1-2.2-4.7-2-4.1.4.6 2.4.8 2.4-6.1.6-9.7-2.6-12.5-.7-11.6 7.9.1 1.6-.1 1.8-1.1.7-2.3-2.1-8.9-1.5-12.6 1.4-4.9 3.7-6.8 8.1-7.2 16.1-.1.9-2.5 1.3-8.5 1.3h-8.4v32c0 17.6.3 32.1.7 32.1.3.1 4.6.2 9.5.3l8.9.1.3 3c.1 1.7.5 5.2.9 8 .7 6.6 1.4 13.1 1.9 18 .2 2.2.7 6.2 1.1 9l.6 5-4.3-4.6c-2.4-2.5-9.9-10.8-16.8-18.4-6.9-7.6-13.6-15-15-16.4-1.4-1.5-4.5-4.9-6.9-7.6-2.5-2.8-8.8-9.7-14-15.5-5.3-5.7-12.1-13.1-15.1-16.5-4.3-4.8-19.6-21.5-25.5-27.9-.5-.6-4.6-5.1-9-10s-8.9-9.9-10-11.1c-3-3.2-19.7-21.5-21.8-23.9-9.4-10.8-9.6-11-12-9-4.5 3.9-20.9 18.8-28.4 25.9l-5.3 5 4.6 5c4.2 4.5 8.5 9.2 26.9 29.4 2.8 3 5.7 6.2 6.5 7.1.8.9 5.3 5.8 10 11s9 10 9.5 10.6c2.7 2.9 18.1 19.9 19 20.8.6.6 5.9 6.5 11.9 13.1s14.5 15.8 18.7 20.5c4.3 4.7 8.6 9.4 9.6 10.6 1 1.2 5.9 6.6 11 12 5 5.5 10 10.9 11 12.1 1 1.2 5.2 5.8 9.3 10.3 4.1 4.5 8.3 9.1 9.3 10.3 1 1.2 4.2 4.7 7 7.7 2.9 3 9.3 10 14.2 15.5 5 5.5 10.2 11.3 11.8 12.9 2.9 3.1 3.2 4 4.2 12.6.4 3 .8 7.1 1.1 9 1.4 10.9 1.3 12-1.3 14-2.9 2.3-.3 3.6-37.8-18.2-13.7-8-35.6-20.6-48.5-28-34.4-19.8-46.3-26.7-48-27.7-.8-.6-4.2-2.5-7.5-4.4-8.8-5-10.3-5.9-42-24.2-15.9-9.2-30.6-17.7-32.5-18.8-1.9-1.1-10.1-5.8-18.3-10.5-8.1-4.6-14.9-8.3-15-8.1-.2.2-5.6 9.6-12.1 20.9-10.8 18.8-11.6 20.5-10 21.7 1 .7 2.2 1.3 2.7 1.3s.5.5-.1 1.2c-.8 1.1-31.1 53.5-37.5 64.8-1 1.9-2.3 3.9-2.7 4.5-.4.5-1.9 3-3.2 5.5-1.4 2.5-5.1 9-8.3 14.5-44 75.9-41.9 71.7-41.9 84 0 7.9.3 9.6 2.7 14.3 5.5 10.6 11.2 14.8 47.7 35.4 1.9 1.1 6.4 3.7 10 5.8 3.6 2.1 8.1 4.7 10 5.8 5 2.8 11 6.4 11 6.5 0 .1 3.8 10.7 8.4 23.6 9.3 25.8 9.1 23.3 3.1 32.6-2.8 4.4-16.7 26.7-19.8 31.9-.7 1.1-2.7 4.4-4.5 7.4-1.9 3-3 5.8-2.5 6.2.9.9 10.8 6 48.3 25.2 12.9 6.7 24 12.5 24.5 13 1 .9 1.3 9.2 1.5 49.6l.2 22.2h597.9l-.4-35.5c-.3-25.5-.1-35.7.7-36.4.6-.5 6.5-3.7 13.1-7.1 6.6-3.4 15.6-8.1 20-10.5 4.4-2.3 14.8-7.7 23-12 8.3-4.3 15.3-8 15.7-8.4.4-.4-1.6-4.2-4.4-8.6-11.3-17.7-13.8-21.5-21.1-33.1-4.3-6.7-7.7-12.8-7.7-13.5 0-1.1 14.2-44.8 24.9-76.5l2.8-8.2-2.6.8c-1.4.4-7.5 2.4-13.5 4.4-6 2-11.1 3.4-11.3 3.2-.2-.2 1.2-4.3 3.1-9.2 5.2-13.3 25.2-65.4 26.9-69.9 1-3 22.8-59.7 28.2-73.8.8-2 4.5-2.3 6.3-.5.7.7 1.2.9 1.2.5 0-.3 2.1 0 4.8.8 2.6.8 4.8 1.5 5 1.5.1 0 .2-11.2.2-24.8v-24.8l-12.7-3.3c-7.1-1.8-13.9-3.6-15.3-4.1-1.4-.5-9.1-2.6-17.1-4.6l-14.6-3.8.7-3.1c.7-2.8 9.9-33.5 12.1-40 1.4-4.2 11.9-39.4 12.9-43 2.2-8.2 18.3-61.2 18.9-62.3.5-.9 3.1 2.4 7.8 10 9.4 15.1 30.1 48.6 32.2 52l1.6 2.7 4.8-3.1c3.3-2.1 4.6-3.6 4.2-4.6-.3-.8-3.8-6.7-7.8-13.1-9.5-15.2-8.9-14.3-11.5-18.7-1.2-2.2-8.7-14.4-16.6-27.1L839.3 158l-6.6 5c-6 4.5-6.7 5.5-8.2 10.7-.8 3.2-2.7 9.4-4 13.8-2.9 9.7-9.4 31.8-14.1 48-1.9 6.6-4.6 15.6-5.9 20-1.3 4.4-6.5 22.2-11.5 39.5-5.1 17.3-9.4 31.7-9.7 32-.2.2-3.4-.4-7.1-1.4-3.7-1-7.4-1.9-8.2-2.1-.8-.2-8.5-2.2-17-4.5s-16.2-4.4-17-4.6c-.8-.2-6.7-1.7-13-3.4s-13.1-3.5-15-4c-1.9-.4-7.1-1.8-11.5-3s-8.7-2.3-9.5-2.5c-.8-.2-4.9-1.3-9-2.4-4.1-1.2-7.6-2.1-7.7-2.1-.4 0-27.3 38.8-27.8 40.2-.5 1.2.5 1.9 4.2 2.7 7.3 1.8 7.5 2 6.4 7.7-.5 2.7-1.2 7.4-1.6 10.4-.3 3-.8 6.2-1 7-.2.8-1.6 8.9-3 18-3.5 22.1-3.5 22.1-4 25-.2 1.4-.6 4.1-.9 6-.4 2.9-3.2 20.6-5.1 32-.2 1.4-.7 4.5-1 7-.4 2.5-1 6.3-1.5 8.5-.4 2.2-.8 4.7-.7 5.5 0 .8-.5 4-1.2 7-.6 3-1.3 7.1-1.6 9-.2 1.9-.6 4.4-.8 5.5-.3 1.1-.8 4.4-1.2 7.2-.4 2.9-1 5.3-1.3 5.3-1.2 0-18.7-3.1-18.9-3.4-.1-.1.2-4.2.7-9.2.6-4.9 1.2-11.2 1.5-13.9.3-2.8.8-6.1 1-7.5.2-1.4.7-5.4 1-9 .3-3.6.8-7.6 1-9 .2-1.4.7-5.4 1.1-9 .3-3.6.8-7.4 1-8.4.2-1.1.6-4.9.9-8.5.3-3.7.7-7.6.9-8.8.3-1.2.7-5 1.1-8.4.4-3.5.8-7.9 1.1-9.8.3-2 .7-5.6.9-8.1.2-2.5.6-5.9.9-7.5.2-1.7.7-5.7 1.1-9 .3-3.3.7-7.1 1-8.5.2-1.4.7-5.2 1-8.5.6-6 1.2-12 2-18.5.3-1.9.7-5.8 1-8.5.3-2.8.9-6.8 1.2-9 .3-2.2.6-5.6.8-7.5.4-4.4 1.4-13.4 2.1-18 .2-1.9.7-6 1-9 .8-8.8.9-9.5 1.6-10 .4-.3 5.9-.5 12.3-.5 7.4.1 11.5-.3 11.6-.9.1-1.1 0-60.2 0-62.4-.1-.9-2.6-1.2-9.1-1.2h-8.9l-1.1-3.8c-.9-3.7-5.9-10.1-8-10.3-.6-.1-1.4-.3-2-.4-.5-.1-1.3-.3-1.6-.4-.3 0 .2-.8 1-1.7 2.6-2.6 2-6.9-1.4-9.7-1.6-1.4-3.9-2.8-5-3.2-1.8-.6-1.8-.8-.5-2.8 2.8-4.3-.2-11.8-5.8-14.9-1.1-.5-3.9-1.1-6.4-1.4-3.7-.3-4.9.1-6.8 2l-2.4 2.4-.3-2.2c-.3-1.8-1-2.1-5-2.2-4.6-.1-4.8.1-4.8 2.6 0 1.5-.5 5.3-1.2 8.4-1 5.2-1.3 5.7-3.2 5.1-1.2-.3-3-.7-4.1-.9-2-.2-8.8 2.7-11.2 4.8-2.6 2.3-3.9 3.3-6.8 5.1l-3 1.9 1.8-2.1c2.3-2.6 2.9-5.9 1.4-7.1-1-.8-8.8-2.1-13.7-2.2-.8 0 .3-1 2.4-2.3 2.1-1.2 4.5-3.1 5.3-4.3 1.2-1.9 1-2.6-2.1-7.2l-3.4-5.1 4.4-2.1c6.6-3.2 11.4-9.3 11.4-14.5 0-2.7-.7-5.2-2-6.8-2.3-2.9-7.8-4.8-11-4-2.1.6-2.1.3-1.6-10.1.5-10.6.5-10.7-2.3-13.8-2.5-2.8-3.5-3.2-8.7-3.4-3.2-.2-6.8 0-8 .4zm54.2 79.2c.1 1.6-.2 2.7-.7 2.4-1.4-.8-.9-5.4.5-5.4.1 0 .2 1.3.2 3z"/></svg>